<mxfile host="app.diagrams.net" agent="Mozilla/5.0 (Windows NT 10.0; Win64; x64; rv:129.0) Gecko/20100101 Firefox/129.0" version="24.7.6">
  <diagram name="Page-1" id="D9KrbN1HpGchZC3lj7AW">
    <mxGraphModel dx="5157" dy="3571" grid="1" gridSize="10" guides="1" tooltips="1" connect="1" arrows="1" fold="1" page="1" pageScale="1" pageWidth="850" pageHeight="1100" math="0" shadow="0">
      <root>
        <mxCell id="0" />
        <mxCell id="1" parent="0" />
        <mxCell id="IhmJbBWfqYOhuKdwk58E-31" value="" style="rounded=0;whiteSpace=wrap;html=1;" parent="1" vertex="1">
          <mxGeometry x="-1632.5" y="-2090" width="703" height="2650" as="geometry" />
        </mxCell>
        <mxCell id="KAFAwpay5vSOozIuFRXG-220" value="&lt;font color=&quot;#006633&quot;&gt;Reception.&lt;/font&gt;" style="shape=umlActor;verticalLabelPosition=bottom;verticalAlign=top;html=1;outlineConnect=0;strokeColor=#006633;" parent="1" vertex="1">
          <mxGeometry x="-1689" y="-1170" width="30" height="60" as="geometry" />
        </mxCell>
        <mxCell id="KAFAwpay5vSOozIuFRXG-221" value="&lt;font color=&quot;#cc0000&quot;&gt;Biz. Mngr.&lt;/font&gt;" style="shape=umlActor;verticalLabelPosition=bottom;verticalAlign=top;html=1;outlineConnect=0;strokeColor=#CC0000;" parent="1" vertex="1">
          <mxGeometry x="-884" y="-1150" width="30" height="60" as="geometry" />
        </mxCell>
        <mxCell id="KAFAwpay5vSOozIuFRXG-222" value="&lt;b&gt;Hospital System&lt;br&gt;&lt;/b&gt;" style="text;html=1;align=center;verticalAlign=middle;whiteSpace=wrap;rounded=0;" parent="1" vertex="1">
          <mxGeometry x="-1329" y="-2090" width="110" height="30" as="geometry" />
        </mxCell>
        <mxCell id="KAFAwpay5vSOozIuFRXG-225" value="" style="endArrow=none;html=1;rounded=0;entryX=0;entryY=1;entryDx=0;entryDy=0;exitX=1;exitY=0.3333333333333333;exitDx=0;exitDy=0;exitPerimeter=0;strokeColor=#006633;" parent="1" source="KAFAwpay5vSOozIuFRXG-220" target="-BWL5EAB8jo8Com8Ihes-15" edge="1">
          <mxGeometry width="50" height="50" relative="1" as="geometry">
            <mxPoint x="-1612.96" y="-1315" as="sourcePoint" />
            <mxPoint x="-1603.0724616091643" y="-1800.3673611594402" as="targetPoint" />
          </mxGeometry>
        </mxCell>
        <mxCell id="KAFAwpay5vSOozIuFRXG-228" value="" style="endArrow=none;html=1;rounded=0;entryX=1;entryY=0;entryDx=0;entryDy=0;exitX=0;exitY=0.3333333333333333;exitDx=0;exitDy=0;exitPerimeter=0;strokeColor=#CC0000;" parent="1" source="KAFAwpay5vSOozIuFRXG-221" target="-BWL5EAB8jo8Com8Ihes-22" edge="1">
          <mxGeometry width="50" height="50" relative="1" as="geometry">
            <mxPoint x="-919" y="-929.9999999999995" as="sourcePoint" />
            <mxPoint x="-967.8650572151523" y="-799.9459289832839" as="targetPoint" />
          </mxGeometry>
        </mxCell>
        <mxCell id="KAFAwpay5vSOozIuFRXG-238" value="Delete Procedure-Records" style="ellipse;whiteSpace=wrap;html=1;" parent="1" vertex="1">
          <mxGeometry x="-1249" y="-430" width="110" height="70" as="geometry" />
        </mxCell>
        <mxCell id="KAFAwpay5vSOozIuFRXG-243" value="Create Procedure-Records" style="ellipse;whiteSpace=wrap;html=1;" parent="1" vertex="1">
          <mxGeometry x="-1249" y="-700" width="110" height="70" as="geometry" />
        </mxCell>
        <mxCell id="KAFAwpay5vSOozIuFRXG-253" value="" style="endArrow=none;html=1;rounded=0;entryX=1;entryY=1;entryDx=0;entryDy=0;exitX=0;exitY=0.3333333333333333;exitDx=0;exitDy=0;exitPerimeter=0;strokeColor=#CC0000;" parent="1" source="KAFAwpay5vSOozIuFRXG-221" target="-BWL5EAB8jo8Com8Ihes-15" edge="1">
          <mxGeometry width="50" height="50" relative="1" as="geometry">
            <mxPoint x="-899" y="-1140" as="sourcePoint" />
            <mxPoint x="-964.9275383908139" y="-1800.367361159426" as="targetPoint" />
          </mxGeometry>
        </mxCell>
        <mxCell id="KAFAwpay5vSOozIuFRXG-268" value="Create Patient-Record" style="ellipse;whiteSpace=wrap;html=1;" parent="1" vertex="1">
          <mxGeometry x="-1329" y="-1960" width="110" height="70" as="geometry" />
        </mxCell>
        <mxCell id="KAFAwpay5vSOozIuFRXG-305" value="" style="endArrow=none;html=1;rounded=0;entryX=0;entryY=0;entryDx=0;entryDy=0;exitX=1;exitY=0.3333333333333333;exitDx=0;exitDy=0;exitPerimeter=0;strokeColor=#006633;" parent="1" source="KAFAwpay5vSOozIuFRXG-220" target="-BWL5EAB8jo8Com8Ihes-95" edge="1">
          <mxGeometry width="50" height="50" relative="1" as="geometry">
            <mxPoint x="-1658.9999999999995" y="-929.9999999999995" as="sourcePoint" />
            <mxPoint x="-1601.813106012303" y="-399.74873734153516" as="targetPoint" />
          </mxGeometry>
        </mxCell>
        <mxCell id="KAFAwpay5vSOozIuFRXG-321" value="Update Patient Record" style="ellipse;whiteSpace=wrap;html=1;" parent="1" vertex="1">
          <mxGeometry x="-1329" y="-1780" width="110" height="70" as="geometry" />
        </mxCell>
        <mxCell id="daWZGY0rbaGRkcdSvB8_-9" value="Read Staff-Record" style="ellipse;whiteSpace=wrap;html=1;" parent="1" vertex="1">
          <mxGeometry x="-1249" y="-250" width="110" height="70" as="geometry" />
        </mxCell>
        <mxCell id="-BWL5EAB8jo8Com8Ihes-15" value="Delete Patient Record" style="ellipse;whiteSpace=wrap;html=1;" parent="1" vertex="1">
          <mxGeometry x="-1329" y="-1690" width="110" height="70" as="geometry" />
        </mxCell>
        <mxCell id="-BWL5EAB8jo8Com8Ihes-22" value="Manage Staff" style="ellipse;whiteSpace=wrap;html=1;" parent="1" vertex="1">
          <mxGeometry x="-1059" y="-220" width="110" height="70" as="geometry" />
        </mxCell>
        <mxCell id="-BWL5EAB8jo8Com8Ihes-23" value="" style="endArrow=none;html=1;rounded=0;exitX=0;exitY=0.5;exitDx=0;exitDy=0;startArrow=classic;startFill=1;dashed=1;entryX=1;entryY=0.5;entryDx=0;entryDy=0;" parent="1" source="-BWL5EAB8jo8Com8Ihes-22" target="daWZGY0rbaGRkcdSvB8_-10" edge="1">
          <mxGeometry width="50" height="50" relative="1" as="geometry">
            <mxPoint x="-954" y="-520" as="sourcePoint" />
            <mxPoint x="-1126" y="-375" as="targetPoint" />
          </mxGeometry>
        </mxCell>
        <mxCell id="-BWL5EAB8jo8Com8Ihes-24" value="&amp;lt;&amp;lt;Includes&amp;gt;&amp;gt;" style="edgeLabel;html=1;align=center;verticalAlign=middle;resizable=0;points=[];" parent="-BWL5EAB8jo8Com8Ihes-23" vertex="1" connectable="0">
          <mxGeometry relative="1" as="geometry">
            <mxPoint y="30" as="offset" />
          </mxGeometry>
        </mxCell>
        <mxCell id="-BWL5EAB8jo8Com8Ihes-25" value="" style="endArrow=none;html=1;rounded=0;entryX=1;entryY=0.5;entryDx=0;entryDy=0;exitX=0;exitY=0.5;exitDx=0;exitDy=0;startArrow=classic;startFill=1;dashed=1;" parent="1" source="-BWL5EAB8jo8Com8Ihes-22" target="daWZGY0rbaGRkcdSvB8_-9" edge="1">
          <mxGeometry width="50" height="50" relative="1" as="geometry">
            <mxPoint x="-954" y="-520" as="sourcePoint" />
            <mxPoint x="-1129.19" y="-441" as="targetPoint" />
          </mxGeometry>
        </mxCell>
        <mxCell id="-BWL5EAB8jo8Com8Ihes-26" value="&amp;lt;&amp;lt;Includes&amp;gt;&amp;gt;" style="edgeLabel;html=1;align=center;verticalAlign=middle;resizable=0;points=[];" parent="-BWL5EAB8jo8Com8Ihes-25" vertex="1" connectable="0">
          <mxGeometry relative="1" as="geometry">
            <mxPoint y="-15" as="offset" />
          </mxGeometry>
        </mxCell>
        <mxCell id="-BWL5EAB8jo8Com8Ihes-27" value="Create Staff" style="ellipse;whiteSpace=wrap;html=1;" parent="1" vertex="1">
          <mxGeometry x="-1249" y="-340" width="110" height="70" as="geometry" />
        </mxCell>
        <mxCell id="-BWL5EAB8jo8Com8Ihes-28" value="Delete Staff" style="ellipse;whiteSpace=wrap;html=1;" parent="1" vertex="1">
          <mxGeometry x="-1249" y="-70" width="110" height="70" as="geometry" />
        </mxCell>
        <mxCell id="-BWL5EAB8jo8Com8Ihes-29" value="" style="endArrow=none;html=1;rounded=0;entryX=1;entryY=1;entryDx=0;entryDy=0;exitX=0;exitY=0.5;exitDx=0;exitDy=0;startArrow=classic;startFill=1;dashed=1;" parent="1" source="-BWL5EAB8jo8Com8Ihes-22" target="-BWL5EAB8jo8Com8Ihes-27" edge="1">
          <mxGeometry width="50" height="50" relative="1" as="geometry">
            <mxPoint x="-954" y="-520" as="sourcePoint" />
            <mxPoint x="-1137" y="-495" as="targetPoint" />
          </mxGeometry>
        </mxCell>
        <mxCell id="-BWL5EAB8jo8Com8Ihes-30" value="&amp;lt;&amp;lt;Includes&amp;gt;&amp;gt;" style="edgeLabel;html=1;align=center;verticalAlign=middle;resizable=0;points=[];" parent="-BWL5EAB8jo8Com8Ihes-29" vertex="1" connectable="0">
          <mxGeometry relative="1" as="geometry">
            <mxPoint x="8" y="-17" as="offset" />
          </mxGeometry>
        </mxCell>
        <mxCell id="-BWL5EAB8jo8Com8Ihes-31" value="" style="endArrow=none;html=1;rounded=0;exitX=0;exitY=0.5;exitDx=0;exitDy=0;startArrow=classic;startFill=1;dashed=1;entryX=1;entryY=0;entryDx=0;entryDy=0;" parent="1" source="-BWL5EAB8jo8Com8Ihes-22" target="-BWL5EAB8jo8Com8Ihes-28" edge="1">
          <mxGeometry width="50" height="50" relative="1" as="geometry">
            <mxPoint x="-954" y="-520" as="sourcePoint" />
            <mxPoint x="-1136" y="-295" as="targetPoint" />
          </mxGeometry>
        </mxCell>
        <mxCell id="-BWL5EAB8jo8Com8Ihes-32" value="&amp;lt;&amp;lt;Includes&amp;gt;&amp;gt;" style="edgeLabel;html=1;align=center;verticalAlign=middle;resizable=0;points=[];" parent="-BWL5EAB8jo8Com8Ihes-31" vertex="1" connectable="0">
          <mxGeometry relative="1" as="geometry">
            <mxPoint x="8" y="17" as="offset" />
          </mxGeometry>
        </mxCell>
        <mxCell id="-BWL5EAB8jo8Com8Ihes-68" value="&lt;div&gt;Medical&lt;/div&gt;&lt;div&gt;Staff&lt;br&gt;&lt;/div&gt;" style="shape=umlActor;verticalLabelPosition=bottom;verticalAlign=top;html=1;outlineConnect=0;" parent="1" vertex="1">
          <mxGeometry x="-1689" y="-90" width="30" height="60" as="geometry" />
        </mxCell>
        <mxCell id="-BWL5EAB8jo8Com8Ihes-78" value="Update Procedure-Records" style="ellipse;whiteSpace=wrap;html=1;" parent="1" vertex="1">
          <mxGeometry x="-1249" y="-520" width="110" height="70" as="geometry" />
        </mxCell>
        <mxCell id="-BWL5EAB8jo8Com8Ihes-79" value="Read Procedure-information" style="ellipse;whiteSpace=wrap;html=1;" parent="1" vertex="1">
          <mxGeometry x="-1249" y="-610" width="110" height="70" as="geometry" />
        </mxCell>
        <mxCell id="-BWL5EAB8jo8Com8Ihes-94" value="Patient" style="shape=umlActor;verticalLabelPosition=bottom;verticalAlign=top;html=1;outlineConnect=0;" parent="1" vertex="1">
          <mxGeometry x="-899" y="170" width="30" height="60" as="geometry" />
        </mxCell>
        <mxCell id="-BWL5EAB8jo8Com8Ihes-95" value="Require Patient-Information" style="ellipse;whiteSpace=wrap;html=1;" parent="1" vertex="1">
          <mxGeometry x="-1619" y="200" width="110" height="70" as="geometry" />
        </mxCell>
        <mxCell id="-BWL5EAB8jo8Com8Ihes-103" value="Provide Insurance-Information" style="ellipse;whiteSpace=wrap;html=1;" parent="1" vertex="1">
          <mxGeometry x="-1249" y="290" width="110" height="70" as="geometry" />
        </mxCell>
        <mxCell id="-BWL5EAB8jo8Com8Ihes-104" value="Require Insurance-Information" style="ellipse;whiteSpace=wrap;html=1;" parent="1" vertex="1">
          <mxGeometry x="-1419" y="290" width="110" height="70" as="geometry" />
        </mxCell>
        <mxCell id="-BWL5EAB8jo8Com8Ihes-107" value="Require Household-Information" style="ellipse;whiteSpace=wrap;html=1;" parent="1" vertex="1">
          <mxGeometry x="-1419" y="200" width="110" height="70" as="geometry" />
        </mxCell>
        <mxCell id="-BWL5EAB8jo8Com8Ihes-108" value="Require Signature" style="ellipse;whiteSpace=wrap;html=1;" parent="1" vertex="1">
          <mxGeometry x="-1419" y="110" width="110" height="70" as="geometry" />
        </mxCell>
        <mxCell id="-BWL5EAB8jo8Com8Ihes-109" value="Provide Household-Information" style="ellipse;whiteSpace=wrap;html=1;" parent="1" vertex="1">
          <mxGeometry x="-1249" y="200" width="110" height="70" as="geometry" />
        </mxCell>
        <mxCell id="-BWL5EAB8jo8Com8Ihes-110" value="Provide Signature" style="ellipse;whiteSpace=wrap;html=1;" parent="1" vertex="1">
          <mxGeometry x="-1249" y="110" width="110" height="70" as="geometry" />
        </mxCell>
        <mxCell id="-BWL5EAB8jo8Com8Ihes-114" value="" style="endArrow=none;html=1;rounded=0;entryX=0;entryY=1;entryDx=0;entryDy=0;startArrow=classic;startFill=1;dashed=1;exitX=1;exitY=0.5;exitDx=0;exitDy=0;" parent="1" source="-BWL5EAB8jo8Com8Ihes-95" target="-BWL5EAB8jo8Com8Ihes-108" edge="1">
          <mxGeometry width="50" height="50" relative="1" as="geometry">
            <mxPoint x="-1496.19" y="185" as="sourcePoint" />
            <mxPoint x="-1421.19" y="85" as="targetPoint" />
          </mxGeometry>
        </mxCell>
        <mxCell id="-BWL5EAB8jo8Com8Ihes-115" value="&amp;lt;&amp;lt;Includes&amp;gt;&amp;gt;" style="edgeLabel;html=1;align=center;verticalAlign=middle;resizable=0;points=[];" parent="-BWL5EAB8jo8Com8Ihes-114" vertex="1" connectable="0">
          <mxGeometry relative="1" as="geometry">
            <mxPoint x="-13" y="-12" as="offset" />
          </mxGeometry>
        </mxCell>
        <mxCell id="-BWL5EAB8jo8Com8Ihes-116" value="" style="endArrow=none;html=1;rounded=0;entryX=0;entryY=0.5;entryDx=0;entryDy=0;startArrow=classic;startFill=1;dashed=1;exitX=1;exitY=0.5;exitDx=0;exitDy=0;" parent="1" source="-BWL5EAB8jo8Com8Ihes-95" target="-BWL5EAB8jo8Com8Ihes-107" edge="1">
          <mxGeometry width="50" height="50" relative="1" as="geometry">
            <mxPoint x="-1491.19" y="200" as="sourcePoint" />
            <mxPoint x="-1421.19" y="175" as="targetPoint" />
          </mxGeometry>
        </mxCell>
        <mxCell id="-BWL5EAB8jo8Com8Ihes-117" value="&amp;lt;&amp;lt;Includes&amp;gt;&amp;gt;" style="edgeLabel;html=1;align=center;verticalAlign=middle;resizable=0;points=[];" parent="-BWL5EAB8jo8Com8Ihes-116" vertex="1" connectable="0">
          <mxGeometry relative="1" as="geometry">
            <mxPoint x="-10" y="12" as="offset" />
          </mxGeometry>
        </mxCell>
        <mxCell id="-BWL5EAB8jo8Com8Ihes-118" value="" style="endArrow=none;html=1;rounded=0;entryX=0;entryY=0;entryDx=0;entryDy=0;exitX=1;exitY=0.5;exitDx=0;exitDy=0;startArrow=classic;startFill=1;dashed=1;" parent="1" source="-BWL5EAB8jo8Com8Ihes-95" target="-BWL5EAB8jo8Com8Ihes-104" edge="1">
          <mxGeometry width="50" height="50" relative="1" as="geometry">
            <mxPoint x="-1506.19" y="175" as="sourcePoint" />
            <mxPoint x="-1421.19" y="85" as="targetPoint" />
          </mxGeometry>
        </mxCell>
        <mxCell id="-BWL5EAB8jo8Com8Ihes-119" value="&amp;lt;&amp;lt;Includes&amp;gt;&amp;gt;" style="edgeLabel;html=1;align=center;verticalAlign=middle;resizable=0;points=[];" parent="-BWL5EAB8jo8Com8Ihes-118" vertex="1" connectable="0">
          <mxGeometry relative="1" as="geometry">
            <mxPoint x="-13" y="45" as="offset" />
          </mxGeometry>
        </mxCell>
        <mxCell id="-BWL5EAB8jo8Com8Ihes-120" value="Provide Patient-Information" style="ellipse;whiteSpace=wrap;html=1;" parent="1" vertex="1">
          <mxGeometry x="-1059" y="200" width="110" height="70" as="geometry" />
        </mxCell>
        <mxCell id="-BWL5EAB8jo8Com8Ihes-123" value="" style="endArrow=none;html=1;rounded=0;startArrow=classic;startFill=1;dashed=1;exitX=0;exitY=0.5;exitDx=0;exitDy=0;entryX=1;entryY=1;entryDx=0;entryDy=0;" parent="1" source="-BWL5EAB8jo8Com8Ihes-120" target="-BWL5EAB8jo8Com8Ihes-110" edge="1">
          <mxGeometry width="50" height="50" relative="1" as="geometry">
            <mxPoint x="-1086.1899999999998" y="195" as="sourcePoint" />
            <mxPoint x="-1016.19" y="170" as="targetPoint" />
          </mxGeometry>
        </mxCell>
        <mxCell id="-BWL5EAB8jo8Com8Ihes-124" value="&amp;lt;&amp;lt;Includes&amp;gt;&amp;gt;" style="edgeLabel;html=1;align=center;verticalAlign=middle;resizable=0;points=[];" parent="-BWL5EAB8jo8Com8Ihes-123" vertex="1" connectable="0">
          <mxGeometry relative="1" as="geometry">
            <mxPoint x="16" y="-8" as="offset" />
          </mxGeometry>
        </mxCell>
        <mxCell id="-BWL5EAB8jo8Com8Ihes-125" value="" style="endArrow=none;html=1;rounded=0;entryX=1;entryY=0.5;entryDx=0;entryDy=0;startArrow=classic;startFill=1;dashed=1;exitX=0;exitY=0.5;exitDx=0;exitDy=0;" parent="1" source="-BWL5EAB8jo8Com8Ihes-120" target="-BWL5EAB8jo8Com8Ihes-109" edge="1">
          <mxGeometry width="50" height="50" relative="1" as="geometry">
            <mxPoint x="-1086.1899999999998" y="195" as="sourcePoint" />
            <mxPoint x="-1016.19" y="210" as="targetPoint" />
          </mxGeometry>
        </mxCell>
        <mxCell id="-BWL5EAB8jo8Com8Ihes-126" value="&amp;lt;&amp;lt;Includes&amp;gt;&amp;gt;" style="edgeLabel;html=1;align=center;verticalAlign=middle;resizable=0;points=[];" parent="-BWL5EAB8jo8Com8Ihes-125" vertex="1" connectable="0">
          <mxGeometry relative="1" as="geometry">
            <mxPoint x="5" y="12" as="offset" />
          </mxGeometry>
        </mxCell>
        <mxCell id="-BWL5EAB8jo8Com8Ihes-127" value="" style="endArrow=none;html=1;rounded=0;entryX=1;entryY=0;entryDx=0;entryDy=0;exitX=0;exitY=0.5;exitDx=0;exitDy=0;startArrow=classic;startFill=1;dashed=1;" parent="1" source="-BWL5EAB8jo8Com8Ihes-120" target="-BWL5EAB8jo8Com8Ihes-103" edge="1">
          <mxGeometry width="50" height="50" relative="1" as="geometry">
            <mxPoint x="-1086.1899999999998" y="195" as="sourcePoint" />
            <mxPoint x="-1016.19" y="300" as="targetPoint" />
          </mxGeometry>
        </mxCell>
        <mxCell id="-BWL5EAB8jo8Com8Ihes-128" value="&amp;lt;&amp;lt;Includes&amp;gt;&amp;gt;" style="edgeLabel;html=1;align=center;verticalAlign=middle;resizable=0;points=[];" parent="-BWL5EAB8jo8Com8Ihes-127" vertex="1" connectable="0">
          <mxGeometry relative="1" as="geometry">
            <mxPoint x="16" y="45" as="offset" />
          </mxGeometry>
        </mxCell>
        <mxCell id="-BWL5EAB8jo8Com8Ihes-129" style="rounded=0;orthogonalLoop=1;jettySize=auto;html=1;exitX=1;exitY=0;exitDx=0;exitDy=0;entryX=0;entryY=0.3333333333333333;entryDx=0;entryDy=0;entryPerimeter=0;endArrow=none;endFill=0;" parent="1" source="-BWL5EAB8jo8Com8Ihes-120" target="-BWL5EAB8jo8Com8Ihes-94" edge="1">
          <mxGeometry relative="1" as="geometry">
            <mxPoint x="-899" y="100" as="targetPoint" />
          </mxGeometry>
        </mxCell>
        <mxCell id="-BWL5EAB8jo8Com8Ihes-130" value="" style="endArrow=none;html=1;rounded=0;exitX=0;exitY=1;exitDx=0;exitDy=0;entryX=1;entryY=0.3333333333333333;entryDx=0;entryDy=0;entryPerimeter=0;" parent="1" source="-BWL5EAB8jo8Com8Ihes-79" target="-BWL5EAB8jo8Com8Ihes-68" edge="1">
          <mxGeometry width="50" height="50" relative="1" as="geometry">
            <mxPoint x="-1602.8908729652599" y="-140.2512626584712" as="sourcePoint" />
            <mxPoint x="-1649" y="-520" as="targetPoint" />
          </mxGeometry>
        </mxCell>
        <mxCell id="-BWL5EAB8jo8Com8Ihes-131" value="" style="endArrow=none;html=1;rounded=0;entryX=1;entryY=0;entryDx=0;entryDy=0;exitX=0;exitY=0.3333333333333333;exitDx=0;exitDy=0;exitPerimeter=0;strokeColor=#CC0000;" parent="1" source="KAFAwpay5vSOozIuFRXG-221" target="KAFAwpay5vSOozIuFRXG-243" edge="1">
          <mxGeometry width="50" height="50" relative="1" as="geometry">
            <mxPoint x="-919" y="-929.9999999999995" as="sourcePoint" />
            <mxPoint x="-965.1091270347401" y="-229.74873734152925" as="targetPoint" />
          </mxGeometry>
        </mxCell>
        <mxCell id="daWZGY0rbaGRkcdSvB8_-10" value="&lt;div&gt;Update Staff-Record&lt;/div&gt;" style="ellipse;whiteSpace=wrap;html=1;" parent="1" vertex="1">
          <mxGeometry x="-1249" y="-160" width="110" height="70" as="geometry" />
        </mxCell>
        <mxCell id="-BWL5EAB8jo8Com8Ihes-146" value="Create Invoice" style="ellipse;whiteSpace=wrap;html=1;" parent="1" vertex="1">
          <mxGeometry x="-1419" y="-880" width="110" height="70" as="geometry" />
        </mxCell>
        <mxCell id="-BWL5EAB8jo8Com8Ihes-153" value="Delete Invoice" style="ellipse;whiteSpace=wrap;html=1;" parent="1" vertex="1">
          <mxGeometry x="-1419" y="-610" width="110" height="70" as="geometry" />
        </mxCell>
        <mxCell id="-BWL5EAB8jo8Com8Ihes-158" value="Update Invoice" style="ellipse;whiteSpace=wrap;html=1;" parent="1" vertex="1">
          <mxGeometry x="-1419" y="-700" width="110" height="70" as="geometry" />
        </mxCell>
        <mxCell id="-BWL5EAB8jo8Com8Ihes-152" value="Read Invoice" style="ellipse;whiteSpace=wrap;html=1;" parent="1" vertex="1">
          <mxGeometry x="-1419" y="-790" width="110" height="70" as="geometry" />
        </mxCell>
        <mxCell id="-BWL5EAB8jo8Com8Ihes-159" value="" style="endArrow=none;html=1;rounded=0;entryX=0;entryY=1;entryDx=0;entryDy=0;exitX=1;exitY=0.3333333333333333;exitDx=0;exitDy=0;exitPerimeter=0;strokeColor=#0000FF;" parent="1" source="IhmJbBWfqYOhuKdwk58E-1" target="-BWL5EAB8jo8Com8Ihes-146" edge="1">
          <mxGeometry width="50" height="50" relative="1" as="geometry">
            <mxPoint x="-1659" y="-1129.9999999999998" as="sourcePoint" />
            <mxPoint x="-1619" y="-705" as="targetPoint" />
          </mxGeometry>
        </mxCell>
        <mxCell id="-BWL5EAB8jo8Com8Ihes-177" value="" style="endArrow=none;html=1;rounded=0;entryX=1;entryY=0.5;entryDx=0;entryDy=0;exitX=0;exitY=0.3333333333333333;exitDx=0;exitDy=0;exitPerimeter=0;strokeColor=#CC0000;" parent="1" source="KAFAwpay5vSOozIuFRXG-221" target="-BWL5EAB8jo8Com8Ihes-146" edge="1">
          <mxGeometry width="50" height="50" relative="1" as="geometry">
            <mxPoint x="-909" y="-1120" as="sourcePoint" />
            <mxPoint x="-965.1091270347401" y="-729.7487373415292" as="targetPoint" />
          </mxGeometry>
        </mxCell>
        <mxCell id="-BWL5EAB8jo8Com8Ihes-178" value="" style="endArrow=none;html=1;rounded=0;startArrow=classic;startFill=1;dashed=1;entryX=1;entryY=0.5;entryDx=0;entryDy=0;exitX=0;exitY=0.5;exitDx=0;exitDy=0;" parent="1" source="-BWL5EAB8jo8Com8Ihes-180" target="daWZGY0rbaGRkcdSvB8_-11" edge="1">
          <mxGeometry width="50" height="50" relative="1" as="geometry">
            <mxPoint x="-1304" y="-1030" as="sourcePoint" />
            <mxPoint x="-1720.055668865965" y="-920.2853283187856" as="targetPoint" />
          </mxGeometry>
        </mxCell>
        <mxCell id="-BWL5EAB8jo8Com8Ihes-179" value="&amp;lt;&amp;lt;Includes&amp;gt;&amp;gt;" style="edgeLabel;html=1;align=center;verticalAlign=middle;resizable=0;points=[];" parent="-BWL5EAB8jo8Com8Ihes-178" vertex="1" connectable="0">
          <mxGeometry relative="1" as="geometry">
            <mxPoint x="-19" y="5" as="offset" />
          </mxGeometry>
        </mxCell>
        <mxCell id="-BWL5EAB8jo8Com8Ihes-180" value="Manage Overdue-Invoices" style="ellipse;whiteSpace=wrap;html=1;" parent="1" vertex="1">
          <mxGeometry x="-1164" y="-1100" width="110" height="70" as="geometry" />
        </mxCell>
        <mxCell id="-BWL5EAB8jo8Com8Ihes-183" value="Update Overdue-invoices" style="ellipse;whiteSpace=wrap;html=1;" parent="1" vertex="1">
          <mxGeometry x="-1329" y="-1060" width="110" height="70" as="geometry" />
        </mxCell>
        <mxCell id="-BWL5EAB8jo8Com8Ihes-184" value="Delete Overdue-invoices" style="ellipse;whiteSpace=wrap;html=1;" parent="1" vertex="1">
          <mxGeometry x="-1329" y="-970" width="110" height="70" as="geometry" />
        </mxCell>
        <mxCell id="-BWL5EAB8jo8Com8Ihes-186" value="" style="endArrow=none;html=1;rounded=0;startArrow=classic;startFill=1;dashed=1;entryX=1;entryY=0.5;entryDx=0;entryDy=0;exitX=0;exitY=0.5;exitDx=0;exitDy=0;" parent="1" source="-BWL5EAB8jo8Com8Ihes-180" target="-BWL5EAB8jo8Com8Ihes-183" edge="1">
          <mxGeometry width="50" height="50" relative="1" as="geometry">
            <mxPoint x="-1194" y="-1055" as="sourcePoint" />
            <mxPoint x="-1294" y="-1105" as="targetPoint" />
          </mxGeometry>
        </mxCell>
        <mxCell id="-BWL5EAB8jo8Com8Ihes-187" value="&amp;lt;&amp;lt;Includes&amp;gt;&amp;gt;" style="edgeLabel;html=1;align=center;verticalAlign=middle;resizable=0;points=[];" parent="-BWL5EAB8jo8Com8Ihes-186" vertex="1" connectable="0">
          <mxGeometry relative="1" as="geometry">
            <mxPoint x="-19" y="5" as="offset" />
          </mxGeometry>
        </mxCell>
        <mxCell id="-BWL5EAB8jo8Com8Ihes-188" value="" style="endArrow=none;html=1;rounded=0;startArrow=classic;startFill=1;dashed=1;entryX=1;entryY=0;entryDx=0;entryDy=0;exitX=0;exitY=1;exitDx=0;exitDy=0;" parent="1" source="-BWL5EAB8jo8Com8Ihes-180" target="-BWL5EAB8jo8Com8Ihes-184" edge="1">
          <mxGeometry width="50" height="50" relative="1" as="geometry">
            <mxPoint x="-1194" y="-1055" as="sourcePoint" />
            <mxPoint x="-1289" y="-1015" as="targetPoint" />
          </mxGeometry>
        </mxCell>
        <mxCell id="-BWL5EAB8jo8Com8Ihes-189" value="&amp;lt;&amp;lt;Includes&amp;gt;&amp;gt;" style="edgeLabel;html=1;align=center;verticalAlign=middle;resizable=0;points=[];" parent="-BWL5EAB8jo8Com8Ihes-188" vertex="1" connectable="0">
          <mxGeometry relative="1" as="geometry">
            <mxPoint x="-19" y="5" as="offset" />
          </mxGeometry>
        </mxCell>
        <mxCell id="-BWL5EAB8jo8Com8Ihes-190" value="" style="endArrow=none;html=1;rounded=0;startArrow=classic;startFill=1;dashed=1;entryX=1;entryY=1;entryDx=0;entryDy=0;exitX=0;exitY=0;exitDx=0;exitDy=0;" parent="1" source="-BWL5EAB8jo8Com8Ihes-180" target="-BWL5EAB8jo8Com8Ihes-185" edge="1">
          <mxGeometry width="50" height="50" relative="1" as="geometry">
            <mxPoint x="-1194" y="-1055" as="sourcePoint" />
            <mxPoint x="-1294" y="-1105" as="targetPoint" />
          </mxGeometry>
        </mxCell>
        <mxCell id="-BWL5EAB8jo8Com8Ihes-191" value="&amp;lt;&amp;lt;Includes&amp;gt;&amp;gt;" style="edgeLabel;html=1;align=center;verticalAlign=middle;resizable=0;points=[];" parent="-BWL5EAB8jo8Com8Ihes-190" vertex="1" connectable="0">
          <mxGeometry relative="1" as="geometry">
            <mxPoint x="-19" y="5" as="offset" />
          </mxGeometry>
        </mxCell>
        <mxCell id="-BWL5EAB8jo8Com8Ihes-193" value="Provide Payment" style="ellipse;whiteSpace=wrap;html=1;" parent="1" vertex="1">
          <mxGeometry x="-1249" y="380" width="110" height="70" as="geometry" />
        </mxCell>
        <mxCell id="-BWL5EAB8jo8Com8Ihes-194" value="Issue Invoice" style="ellipse;whiteSpace=wrap;html=1;" parent="1" vertex="1">
          <mxGeometry x="-1419" y="380" width="110" height="70" as="geometry" />
        </mxCell>
        <mxCell id="-BWL5EAB8jo8Com8Ihes-197" value="" style="endArrow=none;html=1;rounded=0;entryX=0;entryY=0;entryDx=0;entryDy=0;exitX=1;exitY=0.5;exitDx=0;exitDy=0;startArrow=classic;startFill=1;dashed=1;" parent="1" source="-BWL5EAB8jo8Com8Ihes-95" target="-BWL5EAB8jo8Com8Ihes-194" edge="1">
          <mxGeometry width="50" height="50" relative="1" as="geometry">
            <mxPoint x="-1509" y="205" as="sourcePoint" />
            <mxPoint x="-1403" y="310" as="targetPoint" />
          </mxGeometry>
        </mxCell>
        <mxCell id="-BWL5EAB8jo8Com8Ihes-198" value="&amp;lt;&amp;lt;Includes&amp;gt;&amp;gt;" style="edgeLabel;html=1;align=center;verticalAlign=middle;resizable=0;points=[];" parent="-BWL5EAB8jo8Com8Ihes-197" vertex="1" connectable="0">
          <mxGeometry relative="1" as="geometry">
            <mxPoint x="-13" y="45" as="offset" />
          </mxGeometry>
        </mxCell>
        <mxCell id="-BWL5EAB8jo8Com8Ihes-199" value="" style="endArrow=none;html=1;rounded=0;entryX=1;entryY=0;entryDx=0;entryDy=0;exitX=0;exitY=0.5;exitDx=0;exitDy=0;startArrow=classic;startFill=1;dashed=1;" parent="1" source="-BWL5EAB8jo8Com8Ihes-120" target="-BWL5EAB8jo8Com8Ihes-193" edge="1">
          <mxGeometry width="50" height="50" relative="1" as="geometry">
            <mxPoint x="-1049" y="205" as="sourcePoint" />
            <mxPoint x="-1155" y="310" as="targetPoint" />
          </mxGeometry>
        </mxCell>
        <mxCell id="-BWL5EAB8jo8Com8Ihes-200" value="&amp;lt;&amp;lt;Includes&amp;gt;&amp;gt;" style="edgeLabel;html=1;align=center;verticalAlign=middle;resizable=0;points=[];" parent="-BWL5EAB8jo8Com8Ihes-199" vertex="1" connectable="0">
          <mxGeometry relative="1" as="geometry">
            <mxPoint x="16" y="45" as="offset" />
          </mxGeometry>
        </mxCell>
        <mxCell id="-BWL5EAB8jo8Com8Ihes-201" value="Issue Overdue-Invoices" style="ellipse;whiteSpace=wrap;html=1;" parent="1" vertex="1">
          <mxGeometry x="-1619" y="-840" width="110" height="70" as="geometry" />
        </mxCell>
        <mxCell id="-BWL5EAB8jo8Com8Ihes-202" value="" style="endArrow=none;html=1;rounded=0;startArrow=classic;startFill=1;dashed=1;entryX=0;entryY=1;entryDx=0;entryDy=0;exitX=0.5;exitY=0;exitDx=0;exitDy=0;" parent="1" source="-BWL5EAB8jo8Com8Ihes-201" target="-BWL5EAB8jo8Com8Ihes-185" edge="1">
          <mxGeometry width="50" height="50" relative="1" as="geometry">
            <mxPoint x="-1681" y="-1035" as="sourcePoint" />
            <mxPoint x="-1777" y="-1150" as="targetPoint" />
          </mxGeometry>
        </mxCell>
        <mxCell id="-BWL5EAB8jo8Com8Ihes-203" value="&amp;lt;&amp;lt;Extends&amp;gt;&amp;gt;" style="edgeLabel;html=1;align=center;verticalAlign=middle;resizable=0;points=[];" parent="-BWL5EAB8jo8Com8Ihes-202" vertex="1" connectable="0">
          <mxGeometry relative="1" as="geometry">
            <mxPoint x="5" y="15" as="offset" />
          </mxGeometry>
        </mxCell>
        <mxCell id="rNCY8ZECNNX8pXeDaBWE-6" value="" style="endArrow=none;html=1;rounded=0;entryX=1;entryY=0.3333333333333333;entryDx=0;entryDy=0;entryPerimeter=0;exitX=0;exitY=0;exitDx=0;exitDy=0;" parent="1" source="rNCY8ZECNNX8pXeDaBWE-7" target="-BWL5EAB8jo8Com8Ihes-68" edge="1">
          <mxGeometry width="50" height="50" relative="1" as="geometry">
            <mxPoint x="-1399" y="-150" as="sourcePoint" />
            <mxPoint x="-1649" y="-410" as="targetPoint" />
          </mxGeometry>
        </mxCell>
        <mxCell id="rNCY8ZECNNX8pXeDaBWE-7" value="Require Procedure-ID" style="ellipse;whiteSpace=wrap;html=1;" parent="1" vertex="1">
          <mxGeometry x="-1419" y="20" width="110" height="70" as="geometry" />
        </mxCell>
        <mxCell id="rNCY8ZECNNX8pXeDaBWE-8" value="Provide Procedure-ID" style="ellipse;whiteSpace=wrap;html=1;" parent="1" vertex="1">
          <mxGeometry x="-1249" y="20" width="110" height="70" as="geometry" />
        </mxCell>
        <mxCell id="rNCY8ZECNNX8pXeDaBWE-11" style="rounded=0;orthogonalLoop=1;jettySize=auto;html=1;exitX=1;exitY=1;exitDx=0;exitDy=0;entryX=0;entryY=0.3333333333333333;entryDx=0;entryDy=0;entryPerimeter=0;endArrow=none;endFill=0;" parent="1" source="rNCY8ZECNNX8pXeDaBWE-8" target="-BWL5EAB8jo8Com8Ihes-94" edge="1">
          <mxGeometry relative="1" as="geometry">
            <mxPoint x="-1145" y="-170" as="sourcePoint" />
            <mxPoint x="-899" y="-20" as="targetPoint" />
          </mxGeometry>
        </mxCell>
        <mxCell id="rNCY8ZECNNX8pXeDaBWE-13" value="Create Ins.-Provider-Record" style="ellipse;whiteSpace=wrap;html=1;" parent="1" vertex="1">
          <mxGeometry x="-1329" y="-1600" width="110" height="70" as="geometry" />
        </mxCell>
        <mxCell id="rNCY8ZECNNX8pXeDaBWE-15" value="Update Ins.-Provider-Record" style="ellipse;whiteSpace=wrap;html=1;" parent="1" vertex="1">
          <mxGeometry x="-1329" y="-1420" width="110" height="70" as="geometry" />
        </mxCell>
        <mxCell id="rNCY8ZECNNX8pXeDaBWE-16" value="" style="endArrow=none;html=1;rounded=0;entryX=1;entryY=1;entryDx=0;entryDy=0;exitX=0;exitY=0.3333333333333333;exitDx=0;exitDy=0;exitPerimeter=0;strokeColor=#CC0000;" parent="1" source="KAFAwpay5vSOozIuFRXG-221" target="rNCY8ZECNNX8pXeDaBWE-18" edge="1">
          <mxGeometry width="50" height="50" relative="1" as="geometry">
            <mxPoint x="-993" y="-1080" as="sourcePoint" />
            <mxPoint x="-965.1091270347401" y="-1400.251262658471" as="targetPoint" />
          </mxGeometry>
        </mxCell>
        <mxCell id="rNCY8ZECNNX8pXeDaBWE-17" value="Read Ins.-Provider-Record" style="ellipse;whiteSpace=wrap;html=1;" parent="1" vertex="1">
          <mxGeometry x="-1329" y="-1510" width="110" height="70" as="geometry" />
        </mxCell>
        <mxCell id="rNCY8ZECNNX8pXeDaBWE-18" value="Delete Ins.-Provider-Record" style="ellipse;whiteSpace=wrap;html=1;" parent="1" vertex="1">
          <mxGeometry x="-1329" y="-1330" width="110" height="70" as="geometry" />
        </mxCell>
        <mxCell id="rNCY8ZECNNX8pXeDaBWE-20" value="" style="endArrow=none;html=1;rounded=0;entryX=0;entryY=1;entryDx=0;entryDy=0;exitX=1;exitY=0.3333333333333333;exitDx=0;exitDy=0;exitPerimeter=0;strokeColor=#006633;" parent="1" source="KAFAwpay5vSOozIuFRXG-220" target="rNCY8ZECNNX8pXeDaBWE-17" edge="1">
          <mxGeometry width="50" height="50" relative="1" as="geometry">
            <mxPoint x="-1649" y="-1119.9999999999998" as="sourcePoint" />
            <mxPoint x="-1593" y="-720" as="targetPoint" />
          </mxGeometry>
        </mxCell>
        <mxCell id="rNCY8ZECNNX8pXeDaBWE-32" value="Require Telephone-Number" style="ellipse;whiteSpace=wrap;html=1;" parent="1" vertex="1">
          <mxGeometry x="-1419" y="470" width="110" height="70" as="geometry" />
        </mxCell>
        <mxCell id="rNCY8ZECNNX8pXeDaBWE-33" value="Provide Telephone-Number" style="ellipse;whiteSpace=wrap;html=1;" parent="1" vertex="1">
          <mxGeometry x="-1249" y="470" width="110" height="70" as="geometry" />
        </mxCell>
        <mxCell id="rNCY8ZECNNX8pXeDaBWE-36" value="" style="endArrow=none;html=1;rounded=0;entryX=0;entryY=0;entryDx=0;entryDy=0;exitX=1;exitY=0.5;exitDx=0;exitDy=0;startArrow=classic;startFill=1;dashed=1;" parent="1" source="-BWL5EAB8jo8Com8Ihes-95" target="rNCY8ZECNNX8pXeDaBWE-32" edge="1">
          <mxGeometry width="50" height="50" relative="1" as="geometry">
            <mxPoint x="-1499" y="245" as="sourcePoint" />
            <mxPoint x="-1393" y="400" as="targetPoint" />
          </mxGeometry>
        </mxCell>
        <mxCell id="rNCY8ZECNNX8pXeDaBWE-37" value="&amp;lt;&amp;lt;Includes&amp;gt;&amp;gt;" style="edgeLabel;html=1;align=center;verticalAlign=middle;resizable=0;points=[];" parent="rNCY8ZECNNX8pXeDaBWE-36" vertex="1" connectable="0">
          <mxGeometry relative="1" as="geometry">
            <mxPoint x="-13" y="45" as="offset" />
          </mxGeometry>
        </mxCell>
        <mxCell id="rNCY8ZECNNX8pXeDaBWE-38" value="" style="endArrow=none;html=1;rounded=0;entryX=1;entryY=0;entryDx=0;entryDy=0;exitX=0;exitY=0.5;exitDx=0;exitDy=0;startArrow=classic;startFill=1;dashed=1;" parent="1" source="-BWL5EAB8jo8Com8Ihes-120" target="rNCY8ZECNNX8pXeDaBWE-33" edge="1">
          <mxGeometry width="50" height="50" relative="1" as="geometry">
            <mxPoint x="-1049" y="245" as="sourcePoint" />
            <mxPoint x="-1145" y="400" as="targetPoint" />
          </mxGeometry>
        </mxCell>
        <mxCell id="rNCY8ZECNNX8pXeDaBWE-39" value="&amp;lt;&amp;lt;Includes&amp;gt;&amp;gt;" style="edgeLabel;html=1;align=center;verticalAlign=middle;resizable=0;points=[];" parent="rNCY8ZECNNX8pXeDaBWE-38" vertex="1" connectable="0">
          <mxGeometry relative="1" as="geometry">
            <mxPoint x="16" y="45" as="offset" />
          </mxGeometry>
        </mxCell>
        <mxCell id="IhmJbBWfqYOhuKdwk58E-1" value="&lt;font color=&quot;#0000ff&quot;&gt;Finance&lt;/font&gt;" style="shape=umlActor;verticalLabelPosition=bottom;verticalAlign=top;html=1;outlineConnect=0;strokeColor=#0000FF;" parent="1" vertex="1">
          <mxGeometry x="-1696" y="-700" width="30" height="60" as="geometry" />
        </mxCell>
        <mxCell id="IhmJbBWfqYOhuKdwk58E-2" value="" style="endArrow=none;html=1;rounded=0;entryX=0;entryY=1;entryDx=0;entryDy=0;exitX=1;exitY=0.3333333333333333;exitDx=0;exitDy=0;exitPerimeter=0;strokeColor=#0000FF;" parent="1" source="IhmJbBWfqYOhuKdwk58E-1" target="-BWL5EAB8jo8Com8Ihes-201" edge="1">
          <mxGeometry width="50" height="50" relative="1" as="geometry">
            <mxPoint x="-1649" y="-700" as="sourcePoint" />
            <mxPoint x="-1609" y="-695" as="targetPoint" />
          </mxGeometry>
        </mxCell>
        <mxCell id="IhmJbBWfqYOhuKdwk58E-8" value="" style="endArrow=none;html=1;rounded=0;entryX=0;entryY=0;entryDx=0;entryDy=0;exitX=1;exitY=0.3333333333333333;exitDx=0;exitDy=0;exitPerimeter=0;strokeColor=#0000FF;" parent="1" source="IhmJbBWfqYOhuKdwk58E-1" target="-BWL5EAB8jo8Com8Ihes-79" edge="1">
          <mxGeometry width="50" height="50" relative="1" as="geometry">
            <mxPoint x="-1649" y="-720" as="sourcePoint" />
            <mxPoint x="-1609" y="-695" as="targetPoint" />
          </mxGeometry>
        </mxCell>
        <mxCell id="IhmJbBWfqYOhuKdwk58E-10" value="Read Patient-Record" style="ellipse;whiteSpace=wrap;html=1;" parent="1" vertex="1">
          <mxGeometry x="-1329" y="-1870" width="110" height="70" as="geometry" />
        </mxCell>
        <mxCell id="IhmJbBWfqYOhuKdwk58E-13" value="" style="endArrow=none;html=1;rounded=0;entryX=0;entryY=1;entryDx=0;entryDy=0;exitX=1;exitY=0.3333333333333333;exitDx=0;exitDy=0;exitPerimeter=0;strokeColor=#0000FF;" parent="1" source="IhmJbBWfqYOhuKdwk58E-1" target="IhmJbBWfqYOhuKdwk58E-10" edge="1">
          <mxGeometry width="50" height="50" relative="1" as="geometry">
            <mxPoint x="-1666" y="-590" as="sourcePoint" />
            <mxPoint x="-1593" y="-990" as="targetPoint" />
            <Array as="points">
              <mxPoint x="-1416" y="-1490" />
            </Array>
          </mxGeometry>
        </mxCell>
        <mxCell id="-BWL5EAB8jo8Com8Ihes-185" value="Generate Overdue-invoices-report" style="ellipse;whiteSpace=wrap;html=1;" parent="1" vertex="1">
          <mxGeometry x="-1329" y="-1240" width="110" height="70" as="geometry" />
        </mxCell>
        <mxCell id="daWZGY0rbaGRkcdSvB8_-11" value="Read Overdue-invoices" style="ellipse;whiteSpace=wrap;html=1;" parent="1" vertex="1">
          <mxGeometry x="-1329" y="-1150" width="110" height="70" as="geometry" />
        </mxCell>
        <mxCell id="IhmJbBWfqYOhuKdwk58E-37" value="Search Patient-Record" style="ellipse;whiteSpace=wrap;html=1;" parent="1" vertex="1">
          <mxGeometry x="-1329" y="-2050" width="110" height="70" as="geometry" />
        </mxCell>
        <mxCell id="SAJyf3U2WwbhX1KOtpZZ-2" value="" style="endArrow=none;html=1;rounded=0;entryX=1;entryY=0;entryDx=0;entryDy=0;exitX=0;exitY=0.3333333333333333;exitDx=0;exitDy=0;exitPerimeter=0;strokeColor=#CC0000;" edge="1" parent="1" source="KAFAwpay5vSOozIuFRXG-221" target="SAJyf3U2WwbhX1KOtpZZ-1">
          <mxGeometry width="50" height="50" relative="1" as="geometry">
            <mxPoint x="-874" y="-1120" as="sourcePoint" />
            <mxPoint x="-955" y="-1390" as="targetPoint" />
          </mxGeometry>
        </mxCell>
        <mxCell id="SAJyf3U2WwbhX1KOtpZZ-4" value="" style="endArrow=none;html=1;rounded=0;entryX=1;entryY=1;entryDx=0;entryDy=0;exitX=0;exitY=0.3333333333333333;exitDx=0;exitDy=0;exitPerimeter=0;strokeColor=#CC0000;" edge="1" parent="1" source="KAFAwpay5vSOozIuFRXG-221" target="rNCY8ZECNNX8pXeDaBWE-15">
          <mxGeometry width="50" height="50" relative="1" as="geometry">
            <mxPoint x="-874" y="-1120" as="sourcePoint" />
            <mxPoint x="-955" y="-1390" as="targetPoint" />
          </mxGeometry>
        </mxCell>
        <mxCell id="SAJyf3U2WwbhX1KOtpZZ-5" value="" style="endArrow=none;html=1;rounded=0;entryX=1;entryY=1;entryDx=0;entryDy=0;exitX=0;exitY=0.3333333333333333;exitDx=0;exitDy=0;exitPerimeter=0;strokeColor=#CC0000;" edge="1" parent="1" source="KAFAwpay5vSOozIuFRXG-221" target="rNCY8ZECNNX8pXeDaBWE-17">
          <mxGeometry width="50" height="50" relative="1" as="geometry">
            <mxPoint x="-874" y="-1120" as="sourcePoint" />
            <mxPoint x="-1294" y="-1375" as="targetPoint" />
          </mxGeometry>
        </mxCell>
        <mxCell id="SAJyf3U2WwbhX1KOtpZZ-6" value="" style="endArrow=none;html=1;rounded=0;entryX=1;entryY=1;entryDx=0;entryDy=0;exitX=0;exitY=0.3333333333333333;exitDx=0;exitDy=0;exitPerimeter=0;strokeColor=#CC0000;" edge="1" parent="1" source="KAFAwpay5vSOozIuFRXG-221" target="rNCY8ZECNNX8pXeDaBWE-13">
          <mxGeometry width="50" height="50" relative="1" as="geometry">
            <mxPoint x="-874" y="-1120" as="sourcePoint" />
            <mxPoint x="-1294" y="-1465" as="targetPoint" />
          </mxGeometry>
        </mxCell>
        <mxCell id="SAJyf3U2WwbhX1KOtpZZ-7" value="" style="endArrow=none;html=1;rounded=0;entryX=0;entryY=1;entryDx=0;entryDy=0;exitX=1;exitY=0.3333333333333333;exitDx=0;exitDy=0;exitPerimeter=0;strokeColor=#006633;" edge="1" parent="1" source="KAFAwpay5vSOozIuFRXG-220" target="rNCY8ZECNNX8pXeDaBWE-15">
          <mxGeometry width="50" height="50" relative="1" as="geometry">
            <mxPoint x="-1649" y="-1140" as="sourcePoint" />
            <mxPoint x="-1303" y="-1440" as="targetPoint" />
          </mxGeometry>
        </mxCell>
        <mxCell id="SAJyf3U2WwbhX1KOtpZZ-8" value="" style="endArrow=none;html=1;rounded=0;entryX=0;entryY=1;entryDx=0;entryDy=0;exitX=1;exitY=0.3333333333333333;exitDx=0;exitDy=0;exitPerimeter=0;strokeColor=#006633;" edge="1" parent="1" source="KAFAwpay5vSOozIuFRXG-220" target="rNCY8ZECNNX8pXeDaBWE-18">
          <mxGeometry width="50" height="50" relative="1" as="geometry">
            <mxPoint x="-1649" y="-1140" as="sourcePoint" />
            <mxPoint x="-1303" y="-1350" as="targetPoint" />
          </mxGeometry>
        </mxCell>
        <mxCell id="SAJyf3U2WwbhX1KOtpZZ-9" value="" style="endArrow=none;html=1;rounded=0;entryX=0;entryY=1;entryDx=0;entryDy=0;exitX=1;exitY=0.3333333333333333;exitDx=0;exitDy=0;exitPerimeter=0;strokeColor=#006633;" edge="1" parent="1" source="KAFAwpay5vSOozIuFRXG-220" target="rNCY8ZECNNX8pXeDaBWE-13">
          <mxGeometry width="50" height="50" relative="1" as="geometry">
            <mxPoint x="-1649" y="-1140" as="sourcePoint" />
            <mxPoint x="-1303" y="-1440" as="targetPoint" />
          </mxGeometry>
        </mxCell>
        <mxCell id="SAJyf3U2WwbhX1KOtpZZ-10" value="" style="endArrow=none;html=1;rounded=0;entryX=0;entryY=0.5;entryDx=0;entryDy=0;exitX=1;exitY=0.3333333333333333;exitDx=0;exitDy=0;exitPerimeter=0;strokeColor=#0000FF;" edge="1" parent="1" source="IhmJbBWfqYOhuKdwk58E-1" target="-BWL5EAB8jo8Com8Ihes-152">
          <mxGeometry width="50" height="50" relative="1" as="geometry">
            <mxPoint x="-1656" y="-670" as="sourcePoint" />
            <mxPoint x="-1393" y="-810" as="targetPoint" />
          </mxGeometry>
        </mxCell>
        <mxCell id="SAJyf3U2WwbhX1KOtpZZ-11" value="" style="endArrow=none;html=1;rounded=0;entryX=0;entryY=0.5;entryDx=0;entryDy=0;exitX=1;exitY=0.3333333333333333;exitDx=0;exitDy=0;exitPerimeter=0;strokeColor=#0000FF;" edge="1" parent="1" source="IhmJbBWfqYOhuKdwk58E-1" target="-BWL5EAB8jo8Com8Ihes-158">
          <mxGeometry width="50" height="50" relative="1" as="geometry">
            <mxPoint x="-1656" y="-670" as="sourcePoint" />
            <mxPoint x="-1393" y="-720" as="targetPoint" />
          </mxGeometry>
        </mxCell>
        <mxCell id="SAJyf3U2WwbhX1KOtpZZ-12" value="" style="endArrow=none;html=1;rounded=0;entryX=0;entryY=0.5;entryDx=0;entryDy=0;exitX=1;exitY=0.3333333333333333;exitDx=0;exitDy=0;exitPerimeter=0;strokeColor=#0000FF;" edge="1" parent="1" source="IhmJbBWfqYOhuKdwk58E-1" target="-BWL5EAB8jo8Com8Ihes-153">
          <mxGeometry width="50" height="50" relative="1" as="geometry">
            <mxPoint x="-1656" y="-670" as="sourcePoint" />
            <mxPoint x="-1409" y="-655" as="targetPoint" />
          </mxGeometry>
        </mxCell>
        <mxCell id="SAJyf3U2WwbhX1KOtpZZ-13" value="" style="endArrow=none;html=1;rounded=0;entryX=1;entryY=0;entryDx=0;entryDy=0;exitX=0;exitY=0.3333333333333333;exitDx=0;exitDy=0;exitPerimeter=0;strokeColor=#CC0000;" edge="1" parent="1" source="KAFAwpay5vSOozIuFRXG-221" target="-BWL5EAB8jo8Com8Ihes-180">
          <mxGeometry width="50" height="50" relative="1" as="geometry">
            <mxPoint x="-874" y="-1120" as="sourcePoint" />
            <mxPoint x="-955" y="-1080" as="targetPoint" />
          </mxGeometry>
        </mxCell>
        <mxCell id="SAJyf3U2WwbhX1KOtpZZ-14" value="" style="endArrow=none;html=1;rounded=0;entryX=1;entryY=0;entryDx=0;entryDy=0;exitX=0;exitY=0.3333333333333333;exitDx=0;exitDy=0;exitPerimeter=0;strokeColor=#CC0000;" edge="1" parent="1" source="KAFAwpay5vSOozIuFRXG-221" target="-BWL5EAB8jo8Com8Ihes-152">
          <mxGeometry width="50" height="50" relative="1" as="geometry">
            <mxPoint x="-874" y="-1120" as="sourcePoint" />
            <mxPoint x="-1299" y="-835" as="targetPoint" />
          </mxGeometry>
        </mxCell>
        <mxCell id="SAJyf3U2WwbhX1KOtpZZ-15" value="" style="endArrow=none;html=1;rounded=0;entryX=1;entryY=0;entryDx=0;entryDy=0;exitX=0;exitY=0.3333333333333333;exitDx=0;exitDy=0;exitPerimeter=0;strokeColor=#CC0000;" edge="1" parent="1" source="KAFAwpay5vSOozIuFRXG-221" target="-BWL5EAB8jo8Com8Ihes-158">
          <mxGeometry width="50" height="50" relative="1" as="geometry">
            <mxPoint x="-874" y="-1120" as="sourcePoint" />
            <mxPoint x="-1315" y="-770" as="targetPoint" />
          </mxGeometry>
        </mxCell>
        <mxCell id="SAJyf3U2WwbhX1KOtpZZ-16" value="" style="endArrow=none;html=1;rounded=0;entryX=1;entryY=0;entryDx=0;entryDy=0;exitX=0;exitY=0.3333333333333333;exitDx=0;exitDy=0;exitPerimeter=0;strokeColor=#CC0000;" edge="1" parent="1" source="KAFAwpay5vSOozIuFRXG-221" target="-BWL5EAB8jo8Com8Ihes-153">
          <mxGeometry width="50" height="50" relative="1" as="geometry">
            <mxPoint x="-874" y="-1120" as="sourcePoint" />
            <mxPoint x="-1315" y="-680" as="targetPoint" />
          </mxGeometry>
        </mxCell>
        <mxCell id="SAJyf3U2WwbhX1KOtpZZ-17" value="" style="endArrow=none;html=1;rounded=0;exitX=0;exitY=1;exitDx=0;exitDy=0;entryX=1;entryY=0.3333333333333333;entryDx=0;entryDy=0;entryPerimeter=0;" edge="1" parent="1" source="-BWL5EAB8jo8Com8Ihes-78" target="-BWL5EAB8jo8Com8Ihes-68">
          <mxGeometry width="50" height="50" relative="1" as="geometry">
            <mxPoint x="-1393" y="-180" as="sourcePoint" />
            <mxPoint x="-1649" y="-60" as="targetPoint" />
          </mxGeometry>
        </mxCell>
        <mxCell id="SAJyf3U2WwbhX1KOtpZZ-18" value="" style="endArrow=none;html=1;rounded=0;exitX=0;exitY=1;exitDx=0;exitDy=0;entryX=1;entryY=0.3333333333333333;entryDx=0;entryDy=0;entryPerimeter=0;" edge="1" parent="1" source="KAFAwpay5vSOozIuFRXG-238" target="-BWL5EAB8jo8Com8Ihes-68">
          <mxGeometry width="50" height="50" relative="1" as="geometry">
            <mxPoint x="-1409" y="-115" as="sourcePoint" />
            <mxPoint x="-1649" y="-60" as="targetPoint" />
          </mxGeometry>
        </mxCell>
        <mxCell id="SAJyf3U2WwbhX1KOtpZZ-19" value="" style="endArrow=none;html=1;rounded=0;exitX=0;exitY=1;exitDx=0;exitDy=0;entryX=1;entryY=0.3333333333333333;entryDx=0;entryDy=0;entryPerimeter=0;" edge="1" parent="1" source="KAFAwpay5vSOozIuFRXG-243" target="-BWL5EAB8jo8Com8Ihes-68">
          <mxGeometry width="50" height="50" relative="1" as="geometry">
            <mxPoint x="-1393" y="-180" as="sourcePoint" />
            <mxPoint x="-1649" y="-60" as="targetPoint" />
          </mxGeometry>
        </mxCell>
        <mxCell id="SAJyf3U2WwbhX1KOtpZZ-20" value="" style="endArrow=none;html=1;rounded=0;entryX=1;entryY=0;entryDx=0;entryDy=0;exitX=0;exitY=0.3333333333333333;exitDx=0;exitDy=0;exitPerimeter=0;strokeColor=#CC0000;" edge="1" parent="1" source="KAFAwpay5vSOozIuFRXG-221" target="-BWL5EAB8jo8Com8Ihes-79">
          <mxGeometry width="50" height="50" relative="1" as="geometry">
            <mxPoint x="-874" y="-1120" as="sourcePoint" />
            <mxPoint x="-1232" y="-320" as="targetPoint" />
          </mxGeometry>
        </mxCell>
        <mxCell id="SAJyf3U2WwbhX1KOtpZZ-21" value="" style="endArrow=none;html=1;rounded=0;entryX=1;entryY=0;entryDx=0;entryDy=0;exitX=0;exitY=0.3333333333333333;exitDx=0;exitDy=0;exitPerimeter=0;strokeColor=#CC0000;" edge="1" parent="1" source="KAFAwpay5vSOozIuFRXG-221" target="-BWL5EAB8jo8Com8Ihes-78">
          <mxGeometry width="50" height="50" relative="1" as="geometry">
            <mxPoint x="-864" y="-1110" as="sourcePoint" />
            <mxPoint x="-1232" y="-230" as="targetPoint" />
          </mxGeometry>
        </mxCell>
        <mxCell id="SAJyf3U2WwbhX1KOtpZZ-22" value="" style="endArrow=none;html=1;rounded=0;entryX=1;entryY=0;entryDx=0;entryDy=0;exitX=0;exitY=0.3333333333333333;exitDx=0;exitDy=0;exitPerimeter=0;strokeColor=#CC0000;" edge="1" parent="1" source="KAFAwpay5vSOozIuFRXG-221" target="KAFAwpay5vSOozIuFRXG-238">
          <mxGeometry width="50" height="50" relative="1" as="geometry">
            <mxPoint x="-854" y="-1100" as="sourcePoint" />
            <mxPoint x="-1232" y="-140" as="targetPoint" />
          </mxGeometry>
        </mxCell>
        <mxCell id="SAJyf3U2WwbhX1KOtpZZ-23" value="" style="endArrow=none;html=1;rounded=0;entryX=1;entryY=1;entryDx=0;entryDy=0;exitX=0;exitY=0.3333333333333333;exitDx=0;exitDy=0;exitPerimeter=0;strokeColor=#CC0000;" edge="1" parent="1" source="KAFAwpay5vSOozIuFRXG-221" target="KAFAwpay5vSOozIuFRXG-321">
          <mxGeometry width="50" height="50" relative="1" as="geometry">
            <mxPoint x="-874" y="-1120" as="sourcePoint" />
            <mxPoint x="-1225" y="-1620" as="targetPoint" />
          </mxGeometry>
        </mxCell>
        <mxCell id="SAJyf3U2WwbhX1KOtpZZ-24" value="" style="endArrow=none;html=1;rounded=0;entryX=1;entryY=1;entryDx=0;entryDy=0;exitX=0;exitY=0.3333333333333333;exitDx=0;exitDy=0;exitPerimeter=0;strokeColor=#CC0000;" edge="1" parent="1" source="KAFAwpay5vSOozIuFRXG-221" target="IhmJbBWfqYOhuKdwk58E-10">
          <mxGeometry width="50" height="50" relative="1" as="geometry">
            <mxPoint x="-874" y="-1139" as="sourcePoint" />
            <mxPoint x="-1225" y="-1639" as="targetPoint" />
          </mxGeometry>
        </mxCell>
        <mxCell id="SAJyf3U2WwbhX1KOtpZZ-25" value="" style="endArrow=none;html=1;rounded=0;entryX=1;entryY=1;entryDx=0;entryDy=0;exitX=0;exitY=0.3333333333333333;exitDx=0;exitDy=0;exitPerimeter=0;strokeColor=#CC0000;" edge="1" parent="1" source="KAFAwpay5vSOozIuFRXG-221" target="KAFAwpay5vSOozIuFRXG-268">
          <mxGeometry width="50" height="50" relative="1" as="geometry">
            <mxPoint x="-874" y="-1139" as="sourcePoint" />
            <mxPoint x="-1225" y="-1729" as="targetPoint" />
          </mxGeometry>
        </mxCell>
        <mxCell id="SAJyf3U2WwbhX1KOtpZZ-26" value="" style="endArrow=none;html=1;rounded=0;entryX=1;entryY=1;entryDx=0;entryDy=0;exitX=0;exitY=0.3333333333333333;exitDx=0;exitDy=0;exitPerimeter=0;strokeColor=#CC0000;" edge="1" parent="1" source="KAFAwpay5vSOozIuFRXG-221" target="IhmJbBWfqYOhuKdwk58E-37">
          <mxGeometry width="50" height="50" relative="1" as="geometry">
            <mxPoint x="-874" y="-1120" as="sourcePoint" />
            <mxPoint x="-1225" y="-1980" as="targetPoint" />
          </mxGeometry>
        </mxCell>
        <mxCell id="SAJyf3U2WwbhX1KOtpZZ-27" value="" style="endArrow=none;html=1;rounded=0;entryX=0;entryY=1;entryDx=0;entryDy=0;exitX=1;exitY=0.3333333333333333;exitDx=0;exitDy=0;exitPerimeter=0;strokeColor=#006633;" edge="1" parent="1" source="KAFAwpay5vSOozIuFRXG-220" target="KAFAwpay5vSOozIuFRXG-321">
          <mxGeometry width="50" height="50" relative="1" as="geometry">
            <mxPoint x="-1649" y="-1140" as="sourcePoint" />
            <mxPoint x="-1303" y="-1620" as="targetPoint" />
          </mxGeometry>
        </mxCell>
        <mxCell id="SAJyf3U2WwbhX1KOtpZZ-28" value="" style="endArrow=none;html=1;rounded=0;entryX=0;entryY=1;entryDx=0;entryDy=0;exitX=1;exitY=0.3333333333333333;exitDx=0;exitDy=0;exitPerimeter=0;strokeColor=#006633;" edge="1" parent="1" source="KAFAwpay5vSOozIuFRXG-220" target="IhmJbBWfqYOhuKdwk58E-10">
          <mxGeometry width="50" height="50" relative="1" as="geometry">
            <mxPoint x="-1649" y="-1140" as="sourcePoint" />
            <mxPoint x="-1303" y="-1710" as="targetPoint" />
          </mxGeometry>
        </mxCell>
        <mxCell id="SAJyf3U2WwbhX1KOtpZZ-29" value="" style="endArrow=none;html=1;rounded=0;entryX=0;entryY=1;entryDx=0;entryDy=0;exitX=1;exitY=0.3333333333333333;exitDx=0;exitDy=0;exitPerimeter=0;strokeColor=#006633;" edge="1" parent="1" source="KAFAwpay5vSOozIuFRXG-220" target="KAFAwpay5vSOozIuFRXG-268">
          <mxGeometry width="50" height="50" relative="1" as="geometry">
            <mxPoint x="-1649" y="-1140" as="sourcePoint" />
            <mxPoint x="-1303" y="-1800" as="targetPoint" />
          </mxGeometry>
        </mxCell>
        <mxCell id="SAJyf3U2WwbhX1KOtpZZ-30" value="" style="endArrow=none;html=1;rounded=0;entryX=0;entryY=1;entryDx=0;entryDy=0;exitX=1;exitY=0.3333333333333333;exitDx=0;exitDy=0;exitPerimeter=0;strokeColor=#006633;" edge="1" parent="1" source="KAFAwpay5vSOozIuFRXG-220" target="IhmJbBWfqYOhuKdwk58E-37">
          <mxGeometry width="50" height="50" relative="1" as="geometry">
            <mxPoint x="-1649" y="-1140" as="sourcePoint" />
            <mxPoint x="-1303" y="-1890" as="targetPoint" />
          </mxGeometry>
        </mxCell>
        <mxCell id="SAJyf3U2WwbhX1KOtpZZ-32" value="Approve Insurance-Record Update" style="ellipse;whiteSpace=wrap;html=1;" vertex="1" parent="1">
          <mxGeometry x="-1059" y="-430" width="110" height="70" as="geometry" />
        </mxCell>
        <mxCell id="SAJyf3U2WwbhX1KOtpZZ-34" value="" style="endArrow=none;html=1;rounded=0;entryX=1;entryY=0;entryDx=0;entryDy=0;exitX=0;exitY=0.3333333333333333;exitDx=0;exitDy=0;exitPerimeter=0;strokeColor=#CC0000;" edge="1" parent="1" source="KAFAwpay5vSOozIuFRXG-221" target="SAJyf3U2WwbhX1KOtpZZ-31">
          <mxGeometry width="50" height="50" relative="1" as="geometry">
            <mxPoint x="-874" y="-1120" as="sourcePoint" />
            <mxPoint x="-955" y="-590" as="targetPoint" />
          </mxGeometry>
        </mxCell>
        <mxCell id="SAJyf3U2WwbhX1KOtpZZ-35" value="" style="endArrow=none;html=1;rounded=0;entryX=1;entryY=0;entryDx=0;entryDy=0;exitX=0;exitY=0.3333333333333333;exitDx=0;exitDy=0;exitPerimeter=0;strokeColor=#CC0000;" edge="1" parent="1" source="KAFAwpay5vSOozIuFRXG-221" target="SAJyf3U2WwbhX1KOtpZZ-32">
          <mxGeometry width="50" height="50" relative="1" as="geometry">
            <mxPoint x="-864" y="-1110" as="sourcePoint" />
            <mxPoint x="-955" y="-500" as="targetPoint" />
          </mxGeometry>
        </mxCell>
        <mxCell id="SAJyf3U2WwbhX1KOtpZZ-31" value="Approve Procedure-Record Update" style="ellipse;whiteSpace=wrap;html=1;" vertex="1" parent="1">
          <mxGeometry x="-1059" y="-520" width="110" height="70" as="geometry" />
        </mxCell>
        <mxCell id="SAJyf3U2WwbhX1KOtpZZ-1" value="Approve Patient-Record Update" style="ellipse;whiteSpace=wrap;html=1;" vertex="1" parent="1">
          <mxGeometry x="-1059" y="-610" width="110" height="70" as="geometry" />
        </mxCell>
      </root>
    </mxGraphModel>
  </diagram>
</mxfile>
